<?xml version="1.0" encoding="UTF-8"?>
<svg width="77px" height="77px" viewBox="0 0 77 77" version="1.1" xmlns="http://www.w3.org/2000/svg" xmlns:xlink="http://www.w3.org/1999/xlink">
    <!-- Generator: Sketch 60 (88103) - https://sketch.com -->
    <title>Group 17</title>
    <desc>Created with Sketch.</desc>
    <g id="Page-1" stroke="none" stroke-width="1" fill="none" fill-rule="evenodd">
        <g id="1.-Home-Page-Revisi-Copy-6" transform="translate(-914.000000, -1807.000000)" stroke="#083A3D">
            <g id="Group-13" transform="translate(269.000000, 1737.000000)">
                <g id="Group-14" transform="translate(0.000000, 56.000000)">
                    <g id="Group-11-Copy-2" transform="translate(647.000000, 16.000000)">
                        <g id="Group-17">
                            <circle id="Oval" stroke-width="2.173248" cx="36.945216" cy="36.945216" r="36.945216"></circle>
                            <g id="Group-15" transform="translate(16.842672, 8.149680)">
                                <g id="Group-11" transform="translate(0.000000, 13.582800)" stroke-linejoin="round" stroke-width="1.629936">
                                    <polygon id="Path-11" points="20.2900656 20.7590548 39.7334377 10.5323251 39.7334377 24.7817777 20.2900656 35.3351326"></polygon>
                                    <polygon id="Path-13" points="0 10.6535416 20.2900656 20.7590548 20.2900656 35.3351326 0 25.717036"></polygon>
                                    <path d="M39.7334377,10.0944381 L26.7257868,3.24809552 C25.64984,4.0699482 24.6989032,4.48087454 23.8729764,4.48087454 C23.0470497,4.48087454 21.8211381,3.86924329 20.1952419,2.64598079 C18.6343652,3.2450434 17.5105998,3.50818818 16.8239456,3.43541513 C16.1372914,3.36264209 15.3916936,3.1369963 14.5871524,2.75847777 L0,10.5147796 L20.2900656,20.7590548 L39.7334377,10.0944381 Z" id="Path-15"></path>
                                </g>
                                <g id="Group-8" transform="translate(13.039488, 0.000000)">
                                    <path d="M12.5732863,3.05562067 C13.159822,5.74455297 12.8116534,7.43157744 11.5287804,8.11669406 C10.2459073,8.80181069 9.01581291,8.84584579 7.83849706,8.24879939 C7.83929425,8.22535451 7.84016143,8.20202356 7.84109858,8.17880653 C7.91616362,7.41881793 8.0000919,6.84866024 8.09275963,6.46768589 C8.40945571,5.39463741 9.01590367,4.79096792 9.91168993,4.65834018 C11.2190095,4.46478192 12.1062083,3.93054208 12.5732863,3.05562067 Z M7.17493451,4.61852778e-14 C7.67399306,1.22363515 8.10126556,2.17610814 8.456752,2.85741898 C9.04933091,3.9931316 8.5493216,4.90721995 8.13621643,6.30505954 C8.12152335,6.35477706 8.10703775,6.40898585 8.09275963,6.46768589 C7.95159434,6.94636799 7.86784519,7.51618728 7.84109858,8.17880653 L7.83486066,8.24052144 L7.83486066,8.24052144 C5.862556,8.06860662 4.67502974,7.1936064 4.27228186,5.61552079 C3.86953399,4.03743518 4.83708487,2.16559492 7.17493451,4.61852778e-14 Z" id="Combined-Shape" stroke-width="1.086624" stroke-linejoin="round"></path>
                                    <path d="M7.15145587,15.7933577 C8.69400457,13.737166 10.1327545,13.0384794 11.4677056,13.6972979 C12.8026567,14.3561164 13.9784519,14.4178387 14.9950913,13.8824649 C13.7348582,16.8332112 12.2839168,18.2221659 10.6422673,18.0493292 C9.00061769,17.8764925 7.83701389,17.124502 7.15145587,15.7933577 Z M0.0215151377,9.5622912 C1.40556688,10.1949193 2.51433643,10.6566345 3.3478238,10.9474368 C4.73720741,11.4321904 5.06449638,12.5959581 5.84959125,14.0972586 C6.0636736,14.5066384 6.49906115,15.1281087 7.15575389,15.9616695 C5.42122826,17.379052 3.75896746,17.5844109 2.16897147,16.5777464 C0.578975492,15.5710818 -0.136843287,13.2325967 0.0215151377,9.5622912 Z" id="Combined-Shape-Copy-3" stroke-width="1.086624" stroke-linejoin="round"></path>
                                    <path d="M7.46189059,24.0975796 C7.25779946,20.9839319 7.15575389,18.2719619 7.15575389,15.9616695 C7.15575389,12.0491476 7.66552903,9.45814955 7.7693616,8.35998193" id="Path-31" stroke-width="1.629936" stroke-linecap="round"></path>
                                </g>
                            </g>
                            <line x1="47.3815564" y1="36.9332503" x2="39.8145573" y2="33.2371229" id="Path-16" stroke-width="1.629936" stroke-linecap="round"></line>
                            <line x1="35.1507368" y1="30.869372" x2="27.708912" y2="27.1656" id="Path-16-Copy" stroke-width="1.629936" stroke-linecap="round"></line>
                        </g>
                    </g>
                </g>
            </g>
        </g>
    </g>
</svg>