<?xml version="1.0" encoding="UTF-8"?>
<svg width="76px" height="78px" viewBox="0 0 76 78" version="1.1" xmlns="http://www.w3.org/2000/svg" xmlns:xlink="http://www.w3.org/1999/xlink">
    <!-- Generator: Sketch 60 (88103) - https://sketch.com -->
    <title>Group 9</title>
    <desc>Created with Sketch.</desc>
    <g id="Page-1" stroke="none" stroke-width="1" fill="none" fill-rule="evenodd">
        <g id="1.-Home-Page-Revisi-Copy-6" transform="translate(-609.000000, -1802.000000)" stroke="#083A3D">
            <g id="Group-13" transform="translate(269.000000, 1737.000000)">
                <g id="Group-14" transform="translate(0.000000, 56.000000)">
                    <g id="Group-11-Copy" transform="translate(330.000000, 0.000000)">
                        <g id="Group-9">
                            <g id="Group-7" stroke-linecap="round">
                                <path d="M48.1102776,84.8952864 C57.9529673,84.8952864 66.8920295,81.0263973 73.4896703,74.7264132 C80.4987989,68.0335059 84.8653344,58.5967972 84.8653344,48.1402296 C84.8653344,27.8409722 68.4095349,11.3851728 48.1102776,11.3851728 C27.8110203,11.3851728 11.3552208,27.8409722 11.3552208,48.1402296 C11.3552208,58.9239223 15.9992367,68.6229471 23.3964154,75.3464506" id="Oval" stroke-width="2.276736" transform="translate(48.110278, 48.140230) rotate(158.000000) translate(-48.110278, -48.140230) "></path>
                                <line x1="34.7270635" y1="13.8010675" x2="28.2329848" y2="10.7575776" id="Path-2" stroke-width="2.3905728"></line>
                                <line x1="34.7270635" y1="20.9109945" x2="32.7809034" y2="13.8010675" id="Path-2-Copy-2" stroke-width="2.3905728" transform="translate(33.753983, 17.356031) scale(1, -1) translate(-33.753983, -17.356031) "></line>
                            </g>
                            <g id="Group-10" transform="translate(23.960735, 28.459200)">
                                <path d="M46.9826364,52.5696578 C42.6181657,40.3521179 30.9429511,31.6090074 17.2256736,31.6090074 C12.0468444,31.6090074 7.15908454,32.8552233 2.84592,35.0641292" id="Oval-Copy-6" stroke-width="2.276736" stroke-linecap="round" transform="translate(24.914278, 42.089333) rotate(158.000000) translate(-24.914278, -42.089333) "></path>
                                <g id="Group-8" transform="translate(8.482753, 0.000000)" stroke-width="1.8783072">
                                    <path d="M26.3440285,6.40225283 C27.5729604,12.0362062 26.8434642,15.5709242 24.1555398,17.0064066 C21.4676154,18.4418891 18.8902747,18.5341531 16.4235177,17.2831987 C16.4254426,17.2265884 16.4275622,17.1702952 16.4298766,17.114319 C16.5862112,15.5497224 16.7593727,14.3704219 16.9503112,13.5759393 C17.612066,11.3107751 18.8847399,10.0390661 20.7673503,9.76033181 C23.5064961,9.35478116 25.3653888,8.2354215 26.3440285,6.40225283 Z M15.0331961,4.61852778e-14 C16.0788426,2.56380698 16.9740802,4.55946468 17.7189089,5.9869731 C18.9605029,8.36656144 17.9128643,10.2817942 17.0473106,13.2106009 C17.0144832,13.3216804 16.98215,13.4434599 16.9503112,13.5759393 C16.6596435,14.5653611 16.4864928,15.7449812 16.4298766,17.114319 L16.4158985,17.2658544 L16.4158985,17.2658544 C12.2834507,16.905652 9.7953004,15.0723182 8.95144771,11.7658531 C8.10759503,8.459388 10.1348445,4.53743697 15.0331961,4.61852778e-14 Z" id="Combined-Shape" stroke-linejoin="round"></path>
                                    <path d="M14.9840028,33.0908447 C18.2160096,28.7826336 21.2305332,27.3187188 24.0275736,28.6991004 C26.824614,30.079482 29.288185,30.2088049 31.4182864,29.0870693 C28.7777981,35.2695853 25.7377305,38.1797762 22.2980838,37.8176422 C18.8584371,37.4555081 16.4204101,35.879909 14.9840028,33.0908447 Z M0.0450793361,20.0352768 C2.94499727,21.3607832 5.26813348,22.3281865 7.01448796,22.9374866 C9.92557744,23.9531608 10.6113257,26.3915312 12.2562864,29.5371133 C12.7048399,30.3948613 13.6170805,31.6969896 14.9930082,33.443498 C11.358764,36.4132518 7.87593181,36.8435277 4.54451166,34.7343257 C1.21309151,32.6251237 -0.286719267,27.7254407 0.0450793361,20.0352768 Z" id="Combined-Shape-Copy-3" stroke-linejoin="round"></path>
                                    <path d="M15.6344374,50.4901669 C15.2068179,43.9663335 14.9930082,38.2841106 14.9930082,33.443498 C14.9930082,25.2458331 16.0611084,19.8170753 16.2786624,17.5161526" id="Path-31" fill="#D8D8D8"></path>
                                </g>
                            </g>
                        </g>
                    </g>
                </g>
            </g>
        </g>
    </g>
</svg>