<?xml version="1.0" encoding="UTF-8"?>
<svg width="74px" height="78px" viewBox="0 0 74 78" version="1.1" xmlns="http://www.w3.org/2000/svg" xmlns:xlink="http://www.w3.org/1999/xlink">
    <!-- Generator: Sketch 60 (88103) - https://sketch.com -->
    <title>Earth2</title>
    <desc>Created with Sketch.</desc>
    <defs>
        <circle id="path-1" cx="35.3747856" cy="35.3747856" r="35.3747856"></circle>
    </defs>
    <g id="Page-1" stroke="none" stroke-width="1" fill="none" fill-rule="evenodd">
        <g id="1.-Home-Page-Revisi-2" transform="translate(-267.000000, -1803.000000)">
            <g id="Group-13" transform="translate(269.000000, 1736.000000)">
                <g id="Group-14" transform="translate(0.000000, 57.000000)">
                    <g id="Group-11" transform="translate(0.000000, 12.000000)">
                        <g id="Earth2">
                            <g id="Oval-Copy-4">
                                <mask id="mask-2" fill="white">
                                    <use xlink:href="#path-1"></use>
                                </mask>
                                <use id="Mask" stroke="#083A3D" stroke-width="2.276736" xlink:href="#path-1"></use>
                                <path d="M55.584317,47.3728578 C59.218255,46.4967424 55.584317,48.3849538 55.584317,58.6230665 C55.584317,70.6111833 57.3754361,50.32449 80.2893791,61.5458097 C94.366399,68.4395486 105.627962,61.9857893 100.590261,55.4923224 C95.4112622,48.8167257 85.0126328,45.3564333 87.125346,43.3704908 C94.7815706,36.1736681 110.448066,46.583472 113.555597,30.8415853 C116.663128,15.0996986 103.601135,27.2255341 98.9566366,21.3892503 C95.4344665,16.9632862 98.4473698,4.69886355 88.6085907,5.75616502 C65.7717007,8.21027816 96.9072458,33.3804486 73.9841448,34.5172452 C51.0610438,35.6540417 49.1078289,48.9342909 55.584317,47.3728578 Z" id="Oval-Copy-3" stroke="#083A3D" stroke-width="1.707552" mask="url(#mask-2)"></path>
                                <path d="M35.7767138,5.36707861 C39.4106518,4.49096322 35.7767138,6.37917455 35.7767138,16.6172873 C35.7767138,28.6054041 37.5678329,8.31871077 60.4817759,19.5400305 C74.5587958,26.4337694 85.8203588,19.9800101 80.782658,13.4865432 C75.603659,6.8109465 65.2050296,3.35065413 67.3177428,1.36471163 C74.9739674,-5.83211106 90.6404633,4.57769276 93.747994,-11.1641939 C96.8555248,-26.9060806 83.793532,-14.7802451 79.1490334,-20.6165289 C75.6268633,-25.042493 78.6397666,-37.3069156 68.8009875,-36.2496142 C45.9640975,-33.795501 77.0996426,-8.62533055 54.1765416,-7.48853405 C31.2534406,-6.35173754 29.3002257,6.92851167 35.7767138,5.36707861 Z" id="Oval-Copy-5" stroke="#083A3D" stroke-width="1.707552" mask="url(#mask-2)"></path>
                                <path d="M-40.780611,45.6810178 C-37.146673,44.8049024 -40.780611,46.6931138 -40.780611,56.9312265 C-40.780611,68.9193433 -38.9894919,48.63265 -16.0755489,59.8539697 C-1.99852895,66.7477086 9.26303395,60.2939493 4.22533322,53.8004824 C-0.953665797,47.1248857 -3.46072294,49.0866197 -1.3480098,47.1006772 C2.02683303,43.9283374 4.22533322,36.6976048 6.50127311,37.1276706 C32.1201815,41.9686672 5.47575816,2.82487225 -7.75633734,4.06432502 C-30.6277631,6.2066956 0.542317755,31.6886086 -22.3807832,32.8254052 C-45.3038842,33.9622017 -47.2570991,47.2424509 -40.780611,45.6810178 Z" id="Oval-Copy-7" stroke="#083A3D" stroke-width="1.707552" mask="url(#mask-2)"></path>
                            </g>
                            <g id="Group-8" transform="translate(17.530867, 24.417994)" stroke="#083A3D" stroke-width="1.707552">
                                <path d="M26.3440285,6.40225283 C27.5729604,12.0362062 26.8434642,15.5709242 24.1555398,17.0064066 C21.4676154,18.4418891 18.8902747,18.5341531 16.4235177,17.2831987 C16.4254426,17.2265884 16.4275622,17.1702952 16.4298766,17.114319 C16.5862112,15.5497224 16.7593727,14.3704219 16.9503112,13.5759393 C17.612066,11.3107751 18.8847399,10.0390661 20.7673503,9.76033181 C23.5064961,9.35478116 25.3653888,8.2354215 26.3440285,6.40225283 Z M15.0331961,4.61852778e-14 C16.0788426,2.56380698 16.9740802,4.55946468 17.7189089,5.9869731 C18.9605029,8.36656144 17.9128643,10.2817942 17.0473106,13.2106009 C17.0144832,13.3216804 16.98215,13.4434599 16.9503112,13.5759393 C16.6596435,14.5653611 16.4864928,15.7449812 16.4298766,17.114319 L16.4158985,17.2658544 L16.4158985,17.2658544 C12.2834507,16.905652 9.7953004,15.0723182 8.95144771,11.7658531 C8.10759503,8.459388 10.1348445,4.53743697 15.0331961,4.61852778e-14 Z" id="Combined-Shape" stroke-linejoin="round"></path>
                                <path d="M14.9840028,33.0908447 C18.2160096,28.7826336 21.2305332,27.3187188 24.0275736,28.6991004 C26.824614,30.079482 29.288185,30.2088049 31.4182864,29.0870693 C28.7777981,35.2695853 25.7377305,38.1797762 22.2980838,37.8176422 C18.8584371,37.4555081 16.4204101,35.879909 14.9840028,33.0908447 Z M0.0450793361,20.0352768 C2.94499727,21.3607832 5.26813348,22.3281865 7.01448796,22.9374866 C9.92557744,23.9531608 10.6113257,26.3915312 12.2562864,29.5371133 C12.7048399,30.3948613 13.6170805,31.6969896 14.9930082,33.443498 C11.358764,36.4132518 7.87593181,36.8435277 4.54451166,34.7343257 C1.21309151,32.6251237 -0.286719267,27.7254407 0.0450793361,20.0352768 Z" id="Combined-Shape-Copy-3" stroke-linejoin="round"></path>
                                <path d="M15.6344374,50.4901669 C15.2068179,43.9663335 14.9930082,38.2841106 14.9930082,33.443498 C14.9930082,25.2458331 16.0611084,19.8170753 16.2786624,17.5161526" id="Path-31"></path>
                            </g>
                            <path d="M20.1216218,67.4595847 L32.2655691,63.8442122 L32.2655691,63.8442122 L45.5903123,67.5595613 C48.9892934,68.507302 51.3403968,71.6036502 51.3403968,75.132288 L51.3403968,75.132288 L51.3403968,75.132288 L14.4003552,75.132288 C14.4003552,71.5907641 16.7273251,68.4701003 20.1216218,67.4595847 Z" id="Rectangle" stroke="#083A3D" stroke-width="1.707552" fill="#FFFFFF" stroke-linejoin="round"></path>
                            <line x1="7.968576" y1="75.132288" x2="56.5625622" y2="75.132288" id="Path-32" stroke="#083A3D" stroke-width="1.707552" fill="#FFFFFF" stroke-linecap="round"></line>
                        </g>
                    </g>
                </g>
            </g>
        </g>
    </g>
</svg>